<?xml version="1.0" encoding="UTF-8" standalone="no"?>
<!DOCTYPE svg PUBLIC "-//W3C//DTD SVG 1.1//EN"
 "http://www.w3.org/Graphics/SVG/1.1/DTD/svg11.dtd">
<!-- Generated by graphviz version 12.2.1 (0)
 -->
<!-- Title: G Pages: 1 -->
<svg 
 viewBox="0.00 0.00 713.26 332.00" xmlns="http://www.w3.org/2000/svg" xmlns:xlink="http://www.w3.org/1999/xlink">
<g id="graph0" class="graph" transform="scale(1 1) rotate(0) translate(4 328)">
<title>G</title>
<!-- 0 -->
<g id="node1" class="node">
<title>0</title>
<ellipse fill="none" stroke="currentColor" cx="221.21" cy="-306" rx="27" ry="18"/>
<text text-anchor="middle" x="221.21" y="-301.32" font-family="Times,serif" font-size="14.00">0</text>
</g>
<!-- 1 -->
<g id="node2" class="node">
<title>1</title>
<ellipse fill="none" stroke="currentColor" cx="175.21" cy="-234" rx="27" ry="18"/>
<text text-anchor="middle" x="175.21" y="-229.32" font-family="Times,serif" font-size="14.00">1</text>
</g>
<!-- 0&#45;&gt;1 -->
<g id="edge1" class="edge">
<title>0&#45;&gt;1</title>
<path fill="none" stroke="currentColor" d="M210.77,-289.12C205.18,-280.61 198.17,-269.94 191.85,-260.32"/>
<polygon fill="black" stroke="currentColor" points="194.85,-258.52 186.44,-252.09 189,-262.37 194.85,-258.52"/>
</g>
<!-- 2 -->
<g id="node3" class="node">
<title>2</title>
<ellipse fill="none" stroke="currentColor" cx="298.21" cy="-234" rx="27" ry="18"/>
<text text-anchor="middle" x="298.21" y="-229.32" font-family="Times,serif" font-size="14.00">2</text>
</g>
<!-- 0&#45;&gt;2 -->
<g id="edge2" class="edge">
<title>0&#45;&gt;2</title>
<path fill="none" stroke="currentColor" d="M236.79,-290.83C247.54,-281.06 262.04,-267.88 274.25,-256.78"/>
<polygon fill="black" stroke="currentColor" points="276.48,-259.48 281.53,-250.16 271.78,-254.3 276.48,-259.48"/>
</g>
<!-- 3 -->
<g id="node4" class="node">
<title>3</title>
<ellipse fill="none" stroke="currentColor" cx="79.21" cy="-162" rx="50.68" ry="18"/>
<text text-anchor="middle" x="79.21" y="-157.32" font-family="Times,serif" font-size="14.00">char: &#39;o&#39;</text>
</g>
<!-- 1&#45;&gt;3 -->
<g id="edge3" class="edge">
<title>1&#45;&gt;3</title>
<path fill="none" stroke="currentColor" d="M157.6,-220.16C144.21,-210.39 125.45,-196.72 109.64,-185.19"/>
<polygon fill="black" stroke="currentColor" points="112.1,-182.65 101.96,-179.59 107.98,-188.31 112.1,-182.65"/>
</g>
<!-- 4 -->
<g id="node5" class="node">
<title>4</title>
<ellipse fill="none" stroke="currentColor" cx="175.21" cy="-162" rx="27" ry="18"/>
<text text-anchor="middle" x="175.21" y="-157.32" font-family="Times,serif" font-size="14.00">4</text>
</g>
<!-- 1&#45;&gt;4 -->
<g id="edge4" class="edge">
<title>1&#45;&gt;4</title>
<path fill="none" stroke="currentColor" d="M175.21,-215.7C175.21,-208.41 175.21,-199.73 175.21,-191.54"/>
<polygon fill="black" stroke="currentColor" points="178.71,-191.62 175.21,-181.62 171.71,-191.62 178.71,-191.62"/>
</g>
<!-- 5 -->
<g id="node6" class="node">
<title>5</title>
<ellipse fill="none" stroke="currentColor" cx="298.21" cy="-162" rx="48.05" ry="18"/>
<text text-anchor="middle" x="298.21" y="-157.32" font-family="Times,serif" font-size="14.00">char: &#39;l&#39;</text>
</g>
<!-- 2&#45;&gt;5 -->
<g id="edge5" class="edge">
<title>2&#45;&gt;5</title>
<path fill="none" stroke="currentColor" d="M298.21,-215.7C298.21,-208.41 298.21,-199.73 298.21,-191.54"/>
<polygon fill="black" stroke="currentColor" points="301.71,-191.62 298.21,-181.62 294.71,-191.62 301.71,-191.62"/>
</g>
<!-- 6 -->
<g id="node7" class="node">
<title>6</title>
<ellipse fill="none" stroke="currentColor" cx="406.21" cy="-162" rx="27" ry="18"/>
<text text-anchor="middle" x="406.21" y="-157.32" font-family="Times,serif" font-size="14.00">6</text>
</g>
<!-- 2&#45;&gt;6 -->
<g id="edge6" class="edge">
<title>2&#45;&gt;6</title>
<path fill="none" stroke="currentColor" d="M317.02,-220.81C333.8,-209.93 358.6,-193.86 377.8,-181.42"/>
<polygon fill="black" stroke="currentColor" points="379.49,-184.49 385.98,-176.11 375.68,-178.61 379.49,-184.49"/>
</g>
<!-- 7 -->
<g id="node8" class="node">
<title>7</title>
<ellipse fill="none" stroke="currentColor" cx="79.21" cy="-90" rx="51.21" ry="18"/>
<text text-anchor="middle" x="79.21" y="-85.33" font-family="Times,serif" font-size="14.00">char: &#39;h&#39;</text>
</g>
<!-- 4&#45;&gt;7 -->
<g id="edge7" class="edge">
<title>4&#45;&gt;7</title>
<path fill="none" stroke="currentColor" d="M157.6,-148.16C144.21,-138.39 125.45,-124.72 109.64,-113.19"/>
<polygon fill="black" stroke="currentColor" points="112.1,-110.65 101.96,-107.59 107.98,-116.31 112.1,-110.65"/>
</g>
<!-- 8 -->
<g id="node9" class="node">
<title>8</title>
<ellipse fill="none" stroke="currentColor" cx="175.21" cy="-90" rx="27" ry="18"/>
<text text-anchor="middle" x="175.21" y="-85.33" font-family="Times,serif" font-size="14.00">8</text>
</g>
<!-- 4&#45;&gt;8 -->
<g id="edge8" class="edge">
<title>4&#45;&gt;8</title>
<path fill="none" stroke="currentColor" d="M175.21,-143.7C175.21,-136.41 175.21,-127.73 175.21,-119.54"/>
<polygon fill="black" stroke="currentColor" points="178.71,-119.62 175.21,-109.62 171.71,-119.62 178.71,-119.62"/>
</g>
<!-- 9 -->
<g id="node10" class="node">
<title>9</title>
<ellipse fill="none" stroke="currentColor" cx="406.21" cy="-90" rx="27" ry="18"/>
<text text-anchor="middle" x="406.21" y="-85.33" font-family="Times,serif" font-size="14.00">9</text>
</g>
<!-- 6&#45;&gt;9 -->
<g id="edge9" class="edge">
<title>6&#45;&gt;9</title>
<path fill="none" stroke="currentColor" d="M406.21,-143.7C406.21,-136.41 406.21,-127.73 406.21,-119.54"/>
<polygon fill="black" stroke="currentColor" points="409.71,-119.62 406.21,-109.62 402.71,-119.62 409.71,-119.62"/>
</g>
<!-- 10 -->
<g id="node11" class="node">
<title>10</title>
<ellipse fill="none" stroke="currentColor" cx="540.21" cy="-90" rx="27" ry="18"/>
<text text-anchor="middle" x="540.21" y="-85.33" font-family="Times,serif" font-size="14.00">10</text>
</g>
<!-- 6&#45;&gt;10 -->
<g id="edge10" class="edge">
<title>6&#45;&gt;10</title>
<path fill="none" stroke="currentColor" d="M427.15,-150.06C449.17,-138.56 484.07,-120.32 509.28,-107.16"/>
<polygon fill="black" stroke="currentColor" points="510.83,-110.29 518.08,-102.56 507.59,-104.09 510.83,-110.29"/>
</g>
<!-- 11 -->
<g id="node12" class="node">
<title>11</title>
<ellipse fill="none" stroke="currentColor" cx="51.21" cy="-18" rx="51.21" ry="18"/>
<text text-anchor="middle" x="51.21" y="-13.32" font-family="Times,serif" font-size="14.00">char: &#39;d&#39;</text>
</g>
<!-- 8&#45;&gt;11 -->
<g id="edge11" class="edge">
<title>8&#45;&gt;11</title>
<path fill="none" stroke="currentColor" d="M155.01,-77.6C136.76,-67.3 109.47,-51.89 87.45,-39.46"/>
<polygon fill="black" stroke="currentColor" points="89.19,-36.42 78.76,-34.56 85.75,-42.52 89.19,-36.42"/>
</g>
<!-- 12 -->
<g id="node13" class="node">
<title>12</title>
<ellipse fill="none" stroke="currentColor" cx="175.21" cy="-18" rx="54.36" ry="18"/>
<text text-anchor="middle" x="175.21" y="-13.32" font-family="Times,serif" font-size="14.00">char: &#39;\n&#39;</text>
</g>
<!-- 8&#45;&gt;12 -->
<g id="edge12" class="edge">
<title>8&#45;&gt;12</title>
<path fill="none" stroke="currentColor" d="M175.21,-71.7C175.21,-64.41 175.21,-55.73 175.21,-47.54"/>
<polygon fill="black" stroke="currentColor" points="178.71,-47.62 175.21,-37.62 171.71,-47.62 178.71,-47.62"/>
</g>
<!-- 13 -->
<g id="node14" class="node">
<title>13</title>
<ellipse fill="none" stroke="currentColor" cx="301.21" cy="-18" rx="53.31" ry="18"/>
<text text-anchor="middle" x="301.21" y="-13.32" font-family="Times,serif" font-size="14.00">char: &#39;w&#39;</text>
</g>
<!-- 9&#45;&gt;13 -->
<g id="edge13" class="edge">
<title>9&#45;&gt;13</title>
<path fill="none" stroke="currentColor" d="M387.44,-76.49C372.6,-66.6 351.54,-52.56 333.95,-40.83"/>
<polygon fill="black" stroke="currentColor" points="336.12,-38.07 325.85,-35.43 332.23,-43.89 336.12,-38.07"/>
</g>
<!-- 14 -->
<g id="node15" class="node">
<title>14</title>
<ellipse fill="none" stroke="currentColor" cx="422.21" cy="-18" rx="49.63" ry="18"/>
<text text-anchor="middle" x="422.21" y="-13.32" font-family="Times,serif" font-size="14.00">char: &#39;r&#39;</text>
</g>
<!-- 9&#45;&gt;14 -->
<g id="edge14" class="edge">
<title>9&#45;&gt;14</title>
<path fill="none" stroke="currentColor" d="M410.16,-71.7C411.85,-64.32 413.86,-55.52 415.75,-47.25"/>
<polygon fill="black" stroke="currentColor" points="419.14,-48.11 417.96,-37.58 412.32,-46.55 419.14,-48.11"/>
</g>
<!-- 15 -->
<g id="node16" class="node">
<title>15</title>
<ellipse fill="none" stroke="currentColor" cx="540.21" cy="-18" rx="50.68" ry="18"/>
<text text-anchor="middle" x="540.21" y="-13.32" font-family="Times,serif" font-size="14.00">char: &#39;e&#39;</text>
</g>
<!-- 10&#45;&gt;15 -->
<g id="edge15" class="edge">
<title>10&#45;&gt;15</title>
<path fill="none" stroke="currentColor" d="M540.21,-71.7C540.21,-64.41 540.21,-55.73 540.21,-47.54"/>
<polygon fill="black" stroke="currentColor" points="543.71,-47.62 540.21,-37.62 536.71,-47.62 543.71,-47.62"/>
</g>
<!-- 16 -->
<g id="node17" class="node">
<title>16</title>
<ellipse fill="none" stroke="currentColor" cx="657.21" cy="-18" rx="48.05" ry="18"/>
<text text-anchor="middle" x="657.21" y="-13.32" font-family="Times,serif" font-size="14.00">char: &#39; &#39;</text>
</g>
<!-- 10&#45;&gt;16 -->
<g id="edge16" class="edge">
<title>10&#45;&gt;16</title>
<path fill="none" stroke="currentColor" d="M559.79,-77.28C577.01,-66.98 602.46,-51.75 623.03,-39.45"/>
<polygon fill="black" stroke="currentColor" points="624.6,-42.59 631.38,-34.45 621,-36.58 624.6,-42.59"/>
</g>
</g>
</svg>
