<?xml version="1.0" encoding="UTF-8" standalone="no"?>
<!-- Created with Inkscape (http://www.inkscape.org/) -->

<svg
   width="512"
   height="512"
   viewBox="0 0 512 512"
   version="1.1"
   id="svg1"
   xmlns="http://www.w3.org/2000/svg"
   xmlns:svg="http://www.w3.org/2000/svg">
  <defs
     id="defs1" />
  <g
     id="layer1">
    <g
       id="g1"
       transform="matrix(1.002181,0,0,1.002181,-6.9817074,-12.119353)">
      <path
         d="m 38.896873,355.85544 c 12.999988,-0.66667 25.666642,-1 38.666629,-1 13.333321,0 26.666638,0.33333 39.999958,1 v -9.99999 l -14.66665,-1 c -15.333318,-1 -16.999983,-4 -16.999983,-29.99997 V 162.18896 l 92.999913,196.99981 h 6.66666 c 8.33332,-17.99999 10.99999,-27.33331 17.99998,-42.33329 l 59.33327,-125.99988 14.66666,-28.66664 v 152.66652 c 0,26.3333 -1.33334,28.66664 -16.99999,29.99997 l -11.33332,1 v 9.99999 c 14.33332,-0.66667 28.33331,-1 42.66663,-1 16.66665,0 33.66663,0.33333 50.33328,1 v -9.99999 l -15.99998,-1 c -15.33332,-1 -16.99999,-3.66667 -16.99999,-29.99997 V 165.18896 c 0,-25.99998 1.66667,-28.99997 16.99999,-29.99997 l 13.99998,-1 V 124.189 c -10.33332,0.66666 -20.66664,1 -30.99997,1 -10.66665,0 -20.99998,-0.33334 -31.66663,-1 L 190.23006,309.52215 102.23014,124.189 c -10.666651,0.66666 -20.999975,1 -31.666631,1 -10.666656,0 -20.999979,-0.33334 -31.666636,-1 v 9.99999 l 14.666653,1 c 15.333318,1 16.999983,3.99999 16.999983,29.99997 v 149.66652 c 0,25.99997 -1.666665,28.99997 -16.999983,29.99997 l -14.666653,1 z"
         id="text20"
         style="font-size:333.333px;line-height:1.25;font-family:'TeX Gyre Pagella';-inkscape-font-specification:'TeX Gyre Pagella';stroke-width:8.61703"
         aria-label="M" />
      <path
         style="font-size:333.333px;line-height:1.25;font-family:'TeX Gyre Pagella';-inkscape-font-specification:'TeX Gyre Pagella';stroke-width:8.33335"
         d="m 326.25539,242.8828 c 0,16.33331 4.33333,28.3333 13.99999,37.33329 11.33332,10.33333 26.66664,15.66666 58.99994,19.99998 25.66664,3.66667 37.3333,7.66666 45.99996,14.99999 8.66666,7.33333 12.66665,16.66665 12.66665,29.3333 0,29.99998 -24.99997,51.66662 -59.66661,51.66662 -26.66664,0 -52.66661,-12.99999 -54.33328,-26.66664 l -2.66666,-22.33331 h -10.66666 c 0.33334,5.99999 0.33334,11.33332 0.33334,13.33332 0,15.33332 -0.66667,22.66664 -2.66667,37.66663 18.99998,8.33332 38.3333,12.66665 57.66661,12.66665 57.99995,0 99.9999,-34.99996 99.9999,-83.33325 0,-15.66665 -4.33332,-26.66664 -13.66665,-35.3333 -11.66665,-10.99999 -25.66664,-15.33332 -62.99994,-20.33331 -40.66662,-5.33333 -54.99994,-16.33332 -54.99994,-41.99996 0,-27.99997 20.99998,-47.99995 50.33328,-47.99995 12.99999,0 25.33331,2.66666 34.3333,7.66666 10.99999,5.66666 14.66665,10.66665 15.66665,20.33331 l 2,18.99998 h 10.66666 c 0,-17.66665 1.33333,-28.99997 4.66666,-46.99995 -26.66664,-10.66666 -41.66663,-13.99999 -59.99994,-13.99999 -49.66662,0 -85.66659,31.3333 -85.66659,74.99993 z"
         id="text22"
         aria-label="S" />
    </g>
  </g>
</svg>
